<svg xmlns="http://www.w3.org/2000/svg" viewBox="0 0 183.7367 63.0983"><defs><style>.a{fill:#f8a074;}</style></defs><title>brand_1</title><path class="a" d="M29.14,15.7914a16.4113,16.4113,0,0,1,6.457,6.4234A19.1336,19.1336,0,0,1,37.94,31.7834a19.3144,19.3144,0,0,1-2.3422,9.6017,16.3385,16.3385,0,0,1-6.457,6.457,18.9564,18.9564,0,0,1-9.3344,2.2755q-7.2264,0-11.4417-4.8177V62.63H0V13.9178H7.9624v4.6837a12.94,12.94,0,0,1,5.1192-3.8139,17.2982,17.2982,0,0,1,6.7243-1.2711A18.9691,18.9691,0,0,1,29.14,15.7914ZM26.4641,39.88a11.154,11.154,0,0,0,2.9772-8.0964,11.1547,11.1547,0,0,0-2.9772-8.0963,10.1121,10.1121,0,0,0-7.5947-3.078,10.7707,10.7707,0,0,0-5.42,1.3714,9.9218,9.9218,0,0,0-3.8139,3.9148A11.98,11.98,0,0,0,8.23,31.7834a11.9753,11.9753,0,0,0,1.405,5.8882,9.9074,9.9074,0,0,0,3.8139,3.9148,10.76,10.76,0,0,0,5.42,1.3714A10.11,10.11,0,0,0,26.4641,39.88Z"/><path class="a" d="M43.0749,47.0726q-3.1113-3.0435-3.1116-8.5979V0h8.3642V37.8722q0,5.3547,5.0183,5.3535a6.6364,6.6364,0,0,0,3.0108-.6692l.4018,6.6913a14.3188,14.3188,0,0,1-5.0183.87Q46.1846,50.1176,43.0749,47.0726Z"/><path class="a" d="M93.1154,13.9178V49.6491H85.153V45.032a12.9258,12.9258,0,0,1-5.1187,3.8139,17.2986,17.2986,0,0,1-6.7249,1.2717,18.9583,18.9583,0,0,1-9.3344-2.2755,16.169,16.169,0,0,1-6.4233-6.4233,19.4879,19.4879,0,0,1-2.3085-9.6354,19.3,19.3,0,0,1,2.3085-9.6017,16.2426,16.2426,0,0,1,6.4233-6.39,18.971,18.971,0,0,1,9.3344-2.2749,16.5557,16.5557,0,0,1,6.39,1.2044,14.0522,14.0522,0,0,1,5.0519,3.546V13.9178ZM81.8743,39.88a11.08,11.08,0,0,0,3.0108-8.0964,11.08,11.08,0,0,0-3.0108-8.0963,10.2209,10.2209,0,0,0-7.6278-3.078,10.11,10.11,0,0,0-7.5947,3.078,11.15,11.15,0,0,0-2.9777,8.0963A11.15,11.15,0,0,0,66.6518,39.88a10.1082,10.1082,0,0,0,7.5947,3.078A10.2187,10.2187,0,0,0,81.8743,39.88Z"/><path class="a" d="M126.89,17.4644q4.0812,3.948,4.0818,11.7095V49.6491h-8.3642V30.2444q0-4.6831-2.2082-7.0595A8.1681,8.1681,0,0,0,114.11,20.81a9.6563,9.6563,0,0,0-7.2938,2.7771q-2.6765,2.7773-2.6762,7.996V49.6491H95.7753V13.9178h7.9624v4.617a13.0788,13.0788,0,0,1,5.2195-3.7472,18.7963,18.7963,0,0,1,7.0926-1.2711Q122.8075,13.5165,126.89,17.4644Z"/><path class="a" d="M136.4089,47.0726q-3.1114-3.0435-3.1117-8.5979V0h8.3643V37.8722q0,5.3547,5.0183,5.3535a6.6357,6.6357,0,0,0,3.0107-.6692l.4019,6.6913a14.3192,14.3192,0,0,1-5.0183.87Q139.5186,50.1176,136.4089,47.0726Z"/><path class="a" d="M183.7367,13.9178V44.2289q0,18.87-18.5342,18.8694a33.0016,33.0016,0,0,1-9.3344-1.3047,19.4651,19.4651,0,0,1-7.3274-3.78l3.7472-6.29a17.0989,17.0989,0,0,0,5.5541,3.078,20.8839,20.8839,0,0,0,6.8919,1.1378q5.4861,0,8.0627-2.6432t2.5765-8.13V43.493a13.25,13.25,0,0,1-4.885,3.379,16.342,16.342,0,0,1-6.2227,1.1714q-7.16,0-11.2747-3.9479T148.8753,32.252V13.9178H157.24V31.1809q0,4.7518,2.1746,7.1262a7.9654,7.9654,0,0,0,6.19,2.3758A9.4343,9.4343,0,0,0,172.73,37.94q2.6424-2.7435,2.6431-7.963V13.9178Z"/></svg>