<?xml version="1.0" standalone="no"?>
<!DOCTYPE svg PUBLIC "-//W3C//DTD SVG 20010904//EN"
 "http://www.w3.org/TR/2001/REC-SVG-20010904/DTD/svg10.dtd">
<svg version="1.0" xmlns="http://www.w3.org/2000/svg"
 width="540.000000pt" height="540.000000pt" viewBox="0 0 540.000000 540.000000"
 preserveAspectRatio="xMidYMid meet">
<metadata>
Created by potrace 1.11, written by Peter Selinger 2001-2013
</metadata>
<g transform="translate(0.000000,540.000000) scale(0.100000,-0.100000)"
fill="#000000" stroke="none">
<path d="M2518 5396 c-1 -2 -34 -6 -73 -10 -63 -5 -100 -11 -215 -31 -19 -3
-43 -8 -52 -11 -9 -3 -27 -7 -40 -9 -22 -4 -100 -23 -126 -31 -7 -2 -16 -4
-20 -5 -13 -2 -176 -60 -197 -69 -11 -5 -45 -19 -75 -31 -72 -30 -251 -123
-318 -165 -29 -19 -57 -34 -62 -34 -6 0 -10 -4 -10 -8 0 -4 -14 -16 -32 -26
-17 -11 -39 -25 -47 -32 -9 -7 -39 -30 -67 -51 -238 -176 -489 -463 -643 -733
-33 -59 -125 -245 -121 -245 2 0 -6 -18 -17 -40 -32 -63 -108 -295 -128 -390
-3 -11 -7 -31 -10 -45 -3 -14 -7 -36 -10 -50 -3 -14 -7 -36 -10 -50 -2 -14 -7
-45 -10 -70 -3 -25 -9 -61 -12 -80 -10 -50 -15 -3170 -6 -3170 4 0 24 15 44
33 20 17 62 55 94 82 32 28 68 60 81 73 13 12 25 22 28 22 3 0 16 10 29 23 32
30 80 72 162 141 39 33 77 66 86 75 9 9 38 34 64 56 27 22 53 45 59 50 13 12
129 111 170 146 16 13 46 40 66 59 21 19 53 46 71 60 75 57 69 26 70 415 0
192 0 358 0 368 0 24 0 84 0 100 0 18 0 138 -1 162 0 11 0 31 1 45 0 14 1 30
1 35 -1 6 -1 39 -1 75 0 36 0 74 -1 85 0 11 0 31 1 45 0 14 1 30 1 35 -1 6 -1
39 -1 75 0 36 0 74 -1 85 0 11 0 31 1 45 0 14 1 30 1 35 -1 6 -1 39 -1 75 0
36 0 74 -1 85 0 11 0 31 1 45 0 14 1 30 1 35 -1 6 -1 39 -1 75 0 74 -1 95 -2
113 -2 23 10 222 15 247 3 14 7 41 10 60 5 30 14 66 50 200 23 86 110 258 188
371 62 92 200 240 283 305 28 21 52 42 53 47 2 4 10 7 17 7 7 0 15 3 17 8 9
21 243 148 308 167 3 1 37 11 75 24 39 12 81 25 95 27 14 3 41 9 60 14 69 18
157 25 295 24 125 0 250 -10 266 -20 3 -2 21 -6 40 -9 39 -7 161 -42 199 -58
14 -5 30 -11 35 -12 22 -5 130 -60 133 -67 2 -4 9 -8 16 -8 16 0 156 -91 221
-143 110 -88 261 -260 332 -377 85 -140 166 -354 189 -496 3 -20 8 -46 10 -58
4 -19 16 -177 15 -201 -2 -83 -11 -193 -21 -245 -7 -36 -14 -76 -17 -90 -7
-39 -32 -120 -54 -175 -11 -27 -21 -54 -22 -60 -2 -11 -75 -157 -97 -195 -74
-126 -238 -307 -364 -402 -68 -51 -228 -152 -245 -154 -4 0 -33 -13 -65 -27
-61 -28 -214 -78 -253 -83 -11 -1 -29 -5 -40 -8 -25 -7 -78 -16 -132 -21 -64
-7 -280 -7 -316 0 -16 3 -46 8 -65 11 -72 12 -87 16 -155 34 -79 21 -172 53
-182 63 -12 12 -30 7 -55 -15 -46 -43 -115 -103 -162 -142 -26 -21 -60 -51
-75 -65 -16 -14 -40 -35 -52 -45 -13 -11 -89 -76 -169 -146 -80 -69 -158 -137
-174 -150 -16 -14 -39 -34 -52 -45 -12 -12 -41 -36 -63 -55 -23 -19 -41 -38
-41 -42 0 -8 194 -128 208 -128 6 0 12 -3 14 -7 4 -11 167 -89 258 -125 41
-16 84 -33 95 -37 23 -10 175 -56 220 -67 46 -11 46 -11 125 -27 279 -58 565
-65 865 -22 33 5 62 9 65 10 3 1 19 4 35 8 17 4 41 9 55 12 14 2 52 12 85 20
33 9 70 18 82 21 102 21 403 149 529 224 81 47 199 125 202 133 2 4 8 7 13 7
11 0 163 119 167 131 2 5 8 9 13 9 16 0 239 228 313 320 100 125 207 289 279
430 65 128 137 296 137 322 0 8 3 18 7 22 5 4 8 11 9 14 0 4 3 14 6 22 7 17
27 90 29 105 1 6 8 30 15 55 7 25 16 61 19 80 3 19 10 53 15 75 5 22 11 63 15
90 3 28 9 70 13 95 15 98 7 506 -12 607 -5 26 -17 92 -20 118 -2 11 -13 61
-25 110 -13 50 -24 98 -26 107 -8 39 -72 220 -100 283 -139 314 -308 566 -527
786 -173 173 -301 271 -543 416 -11 7 -72 38 -135 68 -63 31 -123 60 -132 66
-10 5 -23 9 -30 9 -7 0 -26 7 -42 15 -31 16 -242 84 -284 91 -15 3 -36 8 -47
11 -11 3 -29 7 -40 8 -11 2 -40 8 -64 15 -23 6 -49 9 -56 6 -7 -2 -16 -2 -20
2 -3 3 -16 7 -28 9 -12 1 -44 5 -72 8 -53 7 -451 15 -457 11z"/>
</g>
</svg>
