<svg xmlns="http://www.w3.org/2000/svg" viewBox="0 0 42.459 42.459"><defs><style>.a{fill:#fff;}.b{fill:#f8af4c;}</style></defs><title>todo</title><circle class="a" cx="21.2295" cy="21.2295" r="21.2295"/><path class="b" d="M11.1579,11.1579a2.3242,2.3242,0,1,0,2.3242,2.3242A2.3242,2.3242,0,0,0,11.1579,11.1579Zm0,7.7474A2.3242,2.3242,0,1,0,13.4821,21.23,2.3242,2.3242,0,0,0,11.1579,18.9053Zm0,7.7474a2.3242,2.3242,0,1,0,2.3242,2.3242A2.3242,2.3242,0,0,0,11.1579,26.6527Zm21.6927.7747H17.3558a.7747.7747,0,0,0-.7747.7748v1.5495a.7747.7747,0,0,0,.7747.7747H32.8506a.7748.7748,0,0,0,.7748-.7747V28.2022A.7748.7748,0,0,0,32.8506,27.4274Zm0-15.4948H17.3558a.7747.7747,0,0,0-.7747.7748v1.5494a.7747.7747,0,0,0,.7747.7748H32.8506a.7748.7748,0,0,0,.7748-.7748V12.7074A.7748.7748,0,0,0,32.8506,11.9326Zm0,7.7474H17.3558a.7747.7747,0,0,0-.7747.7748v1.5494a.7747.7747,0,0,0,.7747.7748H32.8506a.7748.7748,0,0,0,.7748-.7748V20.4548A.7748.7748,0,0,0,32.8506,19.68Z"/></svg>